<svg preserveAspectRatio="none" viewBox="0 0 783 7" fill="none" xmlns="http://www.w3.org/2000/svg">
<path d="M380.471 6.57108C329.736 6.57108 279.001 6.52072 228.266 6.57108C193.953 6.62144 159.639 6.9236 125.326 6.9236C94.7704 7.02432 64.2151 6.82288 33.5781 6.77252C24.1828 6.72216 14.7058 6.6718 5.31041 6.57108C4.16663 6.57108 2.85945 6.52072 1.79737 6.42C1.06208 6.31928 0 6.06748 0 5.86604C0 5.6646 0.980384 5.36245 1.71567 5.31209C4.57512 5.11065 7.51628 4.95957 10.4574 4.90921C36.0291 4.35525 61.5191 3.85166 87.0908 3.34806C109.64 2.94518 132.107 2.44158 154.737 2.18978C245.586 1.18259 336.435 0.527914 427.366 0.125037C474.342 -0.126762 521.237 0.0243173 568.132 0.376835C598.606 0.578274 629.161 0.578274 659.717 0.678994C691.334 0.779713 722.951 0.930792 754.569 1.03151C762.003 1.03151 769.438 1.03151 776.873 1.03151C778.016 1.03151 779.405 1.03151 780.386 1.18259C781.448 1.33367 782.673 1.63583 782.918 1.93799C783.327 2.39122 781.938 2.64302 780.549 2.74374C773.605 3.14662 766.742 3.70058 759.716 3.8013C742.559 4.10345 725.402 4.20417 708.327 4.35525C674.422 4.70777 640.517 5.06029 606.613 5.36245C588.149 5.56388 569.685 5.6646 551.139 5.81568C508.492 6.11784 465.927 6.36964 423.281 6.62144C408.983 6.62144 394.768 6.57108 380.471 6.57108Z" fill="black"/>
</svg>
