<svg width="265" height="71" viewBox="0 0 265 71" fill="none" xmlns="http://www.w3.org/2000/svg">
<path d="M217.323 70.7146C215.765 70.5473 212.947 70.5473 210.261 69.9452C207.31 69.3096 204.459 68.2058 201.807 66.6671C198.491 64.7269 196.005 62.0174 194.38 58.572C192.822 55.2604 192.49 51.7481 193.319 48.1689C193.385 47.8344 193.518 47.5334 193.684 47.2323C194.977 44.9577 196.237 42.6831 197.629 40.4753C198.359 39.338 199.386 38.4349 200.315 37.4313C200.547 37.1972 200.845 36.9965 200.978 36.6954C202.205 34.4208 204.227 32.949 206.283 31.5775C209.134 29.6708 212.217 28.199 215.433 27.0617C218.053 26.1251 220.639 25.155 223.324 24.4191C224.982 23.9843 226.772 23.9508 228.496 23.7501C229.458 23.6498 230.419 23.6163 231.348 23.5494C237.879 23.0142 244.179 23.9843 249.981 27.1621C254.656 29.7043 257.839 33.5511 258.999 38.8363C260.226 44.2887 258.734 49.2059 255.65 53.6548C252.235 58.6055 247.594 62.0843 242.355 64.7604C234.862 68.6072 226.938 70.6142 217.323 70.7146Z" fill="black"/>
<path d="M205.719 18.4984C205.785 22.0776 204.194 25.2888 201.939 28.2325C201.608 28.6339 201.011 28.9684 200.514 29.0687C199.386 29.2694 198.458 29.7712 197.795 30.7078C196.999 31.8786 195.872 32.28 194.546 32.28C190.998 32.3469 188.147 30.9754 186.257 27.9649C184.433 25.1216 183.24 21.9103 183.671 18.4315C184.235 14.0495 186.29 10.4703 190.434 8.66395C194.479 6.89107 198.491 7.32593 202.039 10.0689C204.658 12.1093 205.752 14.9192 205.719 18.4984Z" fill="black"/>
<path d="M265 11.8752C264.934 16.2907 264.005 19.7026 260.889 22.1111C258.8 23.7167 256.446 24.3857 253.86 24.2184C249.815 23.9508 246.698 22.0776 244.742 18.4984C242.687 14.752 242.687 10.8048 244.543 7.0249C247.759 0.435156 257.109 -0.568358 262.182 5.05132C264.072 7.1587 264.967 9.70093 265 11.8752Z" fill="black"/>
<path d="M221.136 0.000278932C226.573 -0.0331715 230.718 2.94392 231.746 7.89459C232.707 12.3769 231.679 16.4579 228.264 19.6357C222.529 24.9543 212.648 21.4755 210.957 13.6815C210.526 11.641 210.56 9.56711 210.991 7.52663C211.985 3.07772 215.5 0.167531 219.976 0.000278932C220.373 0.000278932 220.771 0.000278932 221.136 0.000278932Z" fill="black"/>
<g clip-path="url(#clip0)">
<path d="M96.9933 39.3696C97.1826 38.6865 97.4477 38.0034 97.5235 37.3204C97.6371 36.2578 98.2809 35.8404 99.1899 35.6127C100.591 35.2332 101.879 35.5748 103.053 36.2958C104.682 37.2824 106.234 38.345 107.749 39.4455C108.317 39.8629 108.734 40.5459 109.264 41.1911C110.362 40.0526 111.726 39.028 113.582 39.2937C115.513 39.5593 116.422 40.8875 116.763 42.6331C117.331 42.4813 117.937 42.1018 118.354 42.2915C118.808 42.4813 119.225 43.0505 119.452 43.5818C121.573 48.5909 123.694 53.638 124.376 59.1025C124.754 62.0624 124.3 64.9465 123.012 67.6787C121.156 71.5114 118.392 71.815 115.74 68.4756C113.544 65.7054 112.673 62.4039 112.143 59.0266C112.105 58.8748 112.105 58.7609 112.067 58.6092C111.991 57.2051 111.612 56.1425 110.249 55.2318C108.128 53.7898 107.522 51.3611 107.333 48.8565C107.143 46.5417 107.598 44.3407 108.696 42.0639C106.386 41.229 104.227 40.2803 101.955 39.6731C99.9852 39.1039 98.8869 40.0526 98.6597 42.1018C98.5839 42.709 98.6597 43.3161 98.6597 43.9233C99.0384 43.7336 99.3793 43.5438 99.758 43.3541C99.9474 43.7336 100.212 44.113 100.25 44.5305C100.553 47.4525 100.818 50.3745 101.046 53.2964C101.084 53.9036 101.046 54.5867 100.818 55.1179C100.667 55.5354 100.175 56.0287 99.7959 56.1046C99.4171 56.1805 98.7354 55.801 98.5461 55.4595C97.9022 54.1692 97.4477 52.8031 96.9175 51.437C96.766 51.0196 96.6524 50.5262 96.3115 50.1088C96.0843 50.8298 95.8949 51.5508 95.6677 52.2339C94.4558 56.1425 92.2212 59.2543 88.699 61.4173C86.2373 62.9352 83.7376 63.125 81.1244 61.9865C76.6932 60.0512 73.8149 56.6359 71.7318 52.3857C69.2322 47.3007 68.6641 41.8741 69.3837 36.3337C69.8382 32.8425 70.4441 29.3893 71.2016 25.9739C71.8455 23.0519 73.3225 20.4335 75.3298 18.1946C75.9736 17.4736 76.8068 16.7905 77.6779 16.3731C78.246 16.1075 79.0414 16.3352 79.7231 16.4111C80.2533 16.487 80.7457 16.7905 81.238 16.7526C85.8585 16.4111 89.305 18.3844 91.7289 22.2171C93.8876 25.5945 94.9102 29.3893 95.6677 33.2599C96.0086 35.0435 96.2737 36.865 96.5388 38.6485C96.5766 38.9142 96.6524 39.1419 96.6903 39.4075C96.8039 39.3316 96.9175 39.3696 96.9933 39.3696ZM72.2242 38.7624C71.9591 43.2023 72.8302 47.3766 75.0647 51.1714C76.8068 54.1692 79.0792 56.5979 82.4878 57.6984C84.1921 58.2676 85.7449 58.0399 87.2598 57.1671C90.5169 55.2697 92.4863 52.4995 93.2817 48.7806C94.683 42.0259 93.8119 35.385 91.9182 28.858C89.9867 22.1412 85.4419 19.2572 78.3596 18.9915C77.9809 18.9915 77.4507 19.2192 77.2613 19.5228C76.3524 20.9648 75.3298 22.4068 74.7238 23.9627C72.8302 28.7821 72.5272 33.7912 72.2242 38.7624ZM113.43 56.4841C113.998 59.6717 115.21 62.4039 117.142 64.8326C118.77 66.8818 119.907 66.73 120.891 64.3393C122.709 60.0891 121.118 56.1046 119.831 51.8924C118.278 54.359 116.422 56.1046 113.43 56.4841ZM110.362 47.7181C110.438 48.1355 110.552 48.7427 110.741 49.3119C111.385 51.0955 112.862 51.8924 114.566 51.4749C116.574 50.9816 117.786 49.4637 117.445 47.5663C117.218 46.2381 117.104 44.872 115.854 43.7715C114.68 42.7849 113.733 42.3674 112.446 43.2402C110.931 44.3028 110.552 45.8207 110.362 47.7181Z" fill="black"/>
<path d="M6.58993 55.9907C6.62781 55.6113 6.66568 55.3077 6.66568 55.0041C6.89292 44.0751 6.89292 33.1461 6.24907 22.2171C6.2112 21.4202 6.09758 20.813 5.11288 20.7371C4.92351 20.7371 4.69627 20.6233 4.54478 20.5094C3.59795 19.7125 2.84049 18.7638 1.51492 18.4223C0.757461 18.2326 0.795334 16.9044 1.59067 16.3352C2.31026 15.8418 3.18135 15.3485 4.01456 15.3106C6.55206 15.1588 9.08956 15.1967 11.6271 15.1588C12.3088 15.1588 13.0284 15.1588 13.6343 14.9311C17.9519 13.6409 21.9664 14.286 25.7538 16.4111C26.6249 16.9044 27.4202 17.6254 28.1019 18.3844C30.5637 21.1166 30.753 24.2663 28.6321 27.2642C27.761 28.4785 26.7385 29.6169 25.6401 30.6795C23.0269 33.184 20.1485 35.385 16.8536 36.9409C14.5812 38.0034 12.233 38.7244 9.65766 37.586C9.61979 37.8516 9.58191 38.0414 9.58191 38.2311C9.65766 43.8854 9.77128 49.5396 9.80915 55.1938C9.80915 56.1805 10.15 56.4082 11.0968 56.56C12.7254 56.7497 14.3161 57.2051 15.9067 57.6225C16.6263 57.8122 17.2702 58.2676 17.1187 59.1784C17.0051 60.0512 16.3233 60.3927 15.5659 60.4307C13.0662 60.5824 10.5666 60.7342 8.06699 60.8481C6.55206 60.924 5.03713 60.886 3.5222 60.886C2.95411 60.886 2.34813 60.8481 1.78004 60.6963C0.568095 60.3168 -0.151496 59.2163 -3.23922e-06 58.002C0.15149 56.8256 1.02257 55.9528 2.31026 55.8769C3.37071 55.801 4.43116 55.8769 5.49161 55.9148C5.83247 55.9148 6.17333 55.9528 6.58993 55.9907ZM8.44572 21.2684C8.82445 25.7842 9.20318 30.5656 9.58191 35.4609C10.7181 35.1194 11.6649 34.9296 12.6118 34.5502C13.6343 34.1327 14.619 33.6774 15.5659 33.0702C18.823 30.9831 21.9286 28.7062 24.4282 25.7083C26.0189 23.773 25.8674 22.5207 23.8601 21.0028C21.7013 19.371 19.1638 18.8018 16.4748 18.8018C16.2476 18.8018 16.0204 18.9156 15.7931 18.9915C13.3692 19.7505 10.9453 20.5094 8.44572 21.2684Z" fill="black"/>
<path d="M27.1172 47.8319C27.6474 51.7026 30.9045 54.7385 34.6161 54.7385C38.0625 54.7385 41.509 54.7764 44.8418 53.638C45.4857 53.4103 46.0916 53.0308 46.7355 52.8411C47.1142 52.7272 47.7202 52.7652 47.9095 52.9929C48.1368 53.2585 48.0989 53.8277 48.0232 54.2072C47.9474 54.5108 47.6823 54.8144 47.4551 55.0421C42.7588 58.8748 37.4187 60.7722 31.359 59.7476C28.3291 59.2163 26.1325 57.3189 24.6175 54.7385C22.9132 51.8544 22.08 48.7048 22.2315 45.3274C22.383 41.988 24.0116 39.6352 27.0793 38.3829C29.8062 37.2824 32.6466 36.7891 35.5629 37.4722C37.5323 37.9655 38.82 39.2178 39.3881 41.1531C39.7668 42.4813 39.3881 43.8095 38.1761 44.4925C35.5629 45.9725 32.8739 47.3007 29.844 47.7181C28.973 47.9078 28.064 47.8319 27.1172 47.8319ZM26.8142 45.1756C30.1091 44.7582 32.9496 43.6577 35.6008 42.0259C33.7071 40.8495 31.8892 41.4946 30.1091 42.1018C28.7078 42.5951 27.3823 43.2782 26.8142 45.1756Z" fill="black"/>
<path d="M156.265 51.0575C158.499 51.5508 160.658 52.0442 162.817 52.5375C162.665 51.6647 162.476 50.7539 162.4 49.8052C162.173 47.756 162.552 45.8207 163.461 43.9992C164.067 42.7849 165.051 42.1398 166.036 42.2915C167.021 42.4054 167.854 43.3161 168.195 44.5684C168.649 46.352 167.968 47.9837 166.188 49.274C165.279 49.957 165.203 50.2227 166.074 50.9816C167.702 52.4616 169.672 52.5754 171.982 52.3477C171.603 51.7026 171.338 51.2852 171.111 50.8678C170.657 50.1088 170.088 49.3878 169.785 48.553C168.763 45.7828 170.505 43.2402 173.459 43.3161C175.618 43.3541 177.777 43.6577 179.936 43.7715C180.807 43.8095 181.716 43.7715 182.587 43.6577C183.268 43.5438 183.458 43.8854 183.571 44.4166C183.799 45.4792 183.155 46.6935 181.867 47.035C179.898 47.6043 177.852 47.8699 175.845 48.2873C175.542 48.3632 175.239 48.3253 174.936 48.3253C174.898 48.3253 174.823 48.4012 174.709 48.515C174.823 48.7806 175.012 49.0842 175.05 49.4258C175.315 50.678 175.732 51.9683 175.694 53.2585C175.618 55.6113 173.989 57.3189 171.679 57.6984C169.066 58.1158 166.756 57.4328 164.824 55.6113C164.559 55.3836 164.408 55.08 164.105 54.6246C163.499 55.9528 162.514 56.0666 161.491 56.1805C159.749 56.4082 158.007 56.6738 156.265 56.8635C154.901 56.9774 153.538 56.8256 152.743 55.4595C151.909 54.0554 152.137 52.6893 152.97 51.3611C153.349 50.7919 153.727 50.2227 154.068 49.6155C155.166 47.756 154.863 45.8966 153.197 44.5305C152.629 44.0751 151.871 43.7336 151.341 43.2402C150.887 42.8228 150.432 42.2536 150.357 41.6844C150.167 40.5839 150.887 40.1285 151.947 40.4321C156 41.6844 157.931 45.3653 156.719 49.6914C156.53 50.1468 156.378 50.678 156.265 51.0575Z" fill="black"/>
<path d="M47.5688 39.3316C47.0385 39.3316 46.5083 39.3696 46.016 39.3316C45.2585 39.2557 44.5768 38.8762 44.5389 38.0034C44.4632 37.0927 45.107 36.7511 45.9023 36.5994C47.493 36.2958 47.4173 36.2578 47.4551 34.5881C47.5688 30.5656 47.6824 26.5432 47.8339 22.5207C47.8339 22.255 47.796 21.9135 47.9475 21.7238C48.1747 21.3443 48.5156 20.813 48.8564 20.813C49.1973 20.813 49.7654 21.2684 49.8412 21.6479C50.182 23.5073 50.485 25.3668 50.6744 27.2642C50.9395 29.8446 51.1667 32.4251 51.3561 35.0055C51.4318 35.8024 51.7348 36.0301 52.4923 36.0301C53.4391 36.0301 54.4238 36.1819 55.3328 36.3717C55.6358 36.4476 55.863 36.9029 56.1281 37.2065C55.8251 37.4342 55.56 37.8137 55.2192 37.9275C54.3481 38.1552 53.477 38.2311 52.568 38.345C51.9999 38.4209 51.7727 38.6485 51.9242 39.2178C52.9468 43.8474 53.9693 48.515 54.9919 53.1446C55.1055 53.6759 55.4085 53.7898 55.9009 53.638C56.8856 53.2964 57.8703 52.9929 58.8171 52.6513C59.5367 52.3857 60.2942 52.3098 60.7865 52.9929C61.3167 53.6759 61.1652 54.4728 60.635 55.1179C59.1958 56.9015 57.34 58.1538 55.1055 58.723C53.5906 59.1025 52.2272 58.4574 51.4318 57.1671C50.7501 56.1046 50.1441 54.8523 49.879 53.6C49.0458 49.1222 48.3641 44.6443 47.6445 40.1665C47.6824 39.8629 47.6066 39.6352 47.5688 39.3316Z" fill="black"/>
<path d="M131.382 47.832C131.761 46.2002 130.89 43.8474 129.64 43.0126C128.693 42.3674 127.784 42.671 126.951 43.2403C126.042 43.8854 125.171 44.6443 124.073 45.5551C123.997 44.91 123.808 44.3407 123.883 43.8474C124.148 41.8741 126.345 39.6352 128.314 39.2937C129.716 39.066 130.852 39.5973 131.723 40.5839C134.071 43.2782 134.336 46.4279 133.541 49.7293C133.352 50.4883 133.389 51.0196 133.806 51.6647C134.601 52.8411 135.321 54.0175 136.116 55.1938C136.609 55.9149 136.647 56.6359 136.078 57.281C135.51 57.8882 134.829 57.6605 134.336 57.1671C133.2 56.0667 132.14 54.9282 130.966 53.7139C130.208 53.9795 129.299 54.3969 128.352 54.6246C127.102 54.9282 125.777 55.118 124.83 53.9036C123.883 52.6893 124.073 51.3611 124.716 50.1088C125.019 49.4637 125.436 48.8565 125.891 48.2873C127.481 46.4279 128.883 46.2381 130.928 47.6043C131.117 47.6802 131.231 47.7561 131.382 47.832ZM129.678 51.2473C129.716 51.0955 129.754 50.9437 129.792 50.7919C129.375 50.5263 128.996 49.995 128.58 49.995C127.784 49.957 127.368 50.6021 127.027 51.6267C128.049 51.5129 128.883 51.3991 129.678 51.2473Z" fill="black"/>
<path d="M134.829 46.5797C135.094 45.2894 135.169 43.8854 135.624 42.671C136.836 39.3316 140.51 38.6865 142.593 41.5326C145.168 45.0238 146.531 49.0083 146.342 53.4103C146.304 54.1313 146.039 54.8903 145.736 55.5733C145.585 55.8769 145.092 56.2564 144.789 56.2184C144.448 56.1805 143.994 55.801 143.842 55.4595C143.502 54.5867 143.312 53.6759 143.047 52.8031C142.365 50.6021 141.684 48.4012 140.964 46.2002C140.926 46.1243 140.926 46.0863 140.888 46.0104C140.51 45.2515 140.169 44.2648 139.108 44.4925C138.01 44.7202 138.199 45.8207 138.237 46.5417C138.389 48.4391 138.73 50.3365 138.995 52.2719C139.07 52.9549 139.298 53.6759 139.108 54.321C138.957 54.8523 138.502 55.5354 138.01 55.7251C137.252 55.9908 136.874 55.2318 136.647 54.6246C135.7 52.0062 134.942 49.3878 134.829 46.5797Z" fill="black"/>
<path d="M147.44 41.0013C147.705 41.4946 148.046 41.988 148.16 42.5192C148.842 45.0238 149.599 47.5663 150.129 50.1088C150.319 51.0955 149.978 52.1959 149.751 53.2205C149.675 53.5241 149.258 53.7898 148.955 53.9795C148.842 54.0554 148.577 53.9415 148.425 53.8277C148.349 53.7518 148.387 53.4482 148.463 53.3723C149.069 52.8031 148.69 52.3098 148.425 51.7785C146.872 48.9324 146.531 45.8207 146.645 42.671C146.645 42.1398 146.872 41.5705 147.024 41.0393C147.137 41.0393 147.289 41.0013 147.44 41.0013Z" fill="black"/>
<path d="M146.001 38.0034C145.433 37.2824 144.789 36.5614 144.297 35.8025C144.145 35.5368 144.183 35.0814 144.259 34.7399C144.297 34.5502 144.6 34.3225 144.827 34.2845C144.979 34.2466 145.282 34.5122 145.319 34.702C145.66 35.7645 145.925 36.8271 146.228 37.8896C146.153 37.8896 146.077 37.9655 146.001 38.0034Z" fill="black"/>
<path d="M26.8142 45.1756C27.3444 43.2782 28.7079 42.5951 30.1092 42.1018C31.8892 41.4946 33.7071 40.8495 35.6008 42.0259C32.9497 43.6577 30.1471 44.7582 26.8142 45.1756Z" fill="white"/>
<path d="M129.678 51.2473C128.845 51.3611 128.049 51.4749 127.027 51.6267C127.367 50.6021 127.784 49.995 128.579 49.995C128.996 49.995 129.413 50.5262 129.791 50.7919C129.753 50.9816 129.716 51.1334 129.678 51.2473Z" fill="white"/>
</g>
<defs>
<clipPath id="clip0">
<rect width="183.571" height="56.4286" fill="white" transform="translate(0 14.286)"/>
</clipPath>
</defs>
</svg>
