<svg preserveAspectRatio="none" viewBox="0 0 82 71" fill="none" xmlns="http://www.w3.org/2000/svg">
<path d="M34.3232 70.7146C32.7649 70.5473 29.9467 70.5473 27.2612 69.9452C24.3104 69.3096 21.4591 68.2058 18.8067 66.6671C15.4912 64.7269 13.0045 62.0174 11.38 58.572C9.82167 55.2604 9.49012 51.7481 10.319 48.1689C10.3853 47.8344 10.5179 47.5334 10.6837 47.2323C11.9767 44.9577 13.2366 42.6831 14.6291 40.4753C15.3585 39.338 16.3864 38.4349 17.3147 37.4313C17.5468 37.1972 17.8452 36.9965 17.9778 36.6954C19.2045 34.4208 21.227 32.949 23.2826 31.5775C26.1339 29.6708 29.2173 28.199 32.4333 27.0617C35.0526 26.1251 37.6387 25.155 40.3242 24.4191C41.982 23.9843 43.7723 23.9508 45.4964 23.7501C46.4579 23.6498 47.4194 23.6163 48.3477 23.5494C54.8792 23.0142 61.1787 23.9843 66.9808 27.1621C71.6557 29.7043 74.8385 33.5511 75.9989 38.8363C77.2257 44.2887 75.7337 49.2059 72.6503 53.6548C69.2353 58.6055 64.5936 62.0843 59.3552 64.7604C51.8621 68.6072 43.9381 70.6142 34.3232 70.7146Z" fill="black"/>
<path d="M22.7189 18.4984C22.7852 22.0776 21.1938 25.2888 18.9393 28.2325C18.6077 28.6339 18.0109 28.9684 17.5136 29.0687C16.3863 29.2694 15.458 29.7712 14.7949 30.7078C13.9992 31.8786 12.8719 32.28 11.5457 32.28C7.99812 32.3469 5.1468 30.9754 3.25697 27.9649C1.43344 25.1216 0.239866 21.9103 0.670881 18.4315C1.23451 14.0495 3.29012 10.4703 7.43449 8.66395C11.4794 6.89107 15.4911 7.32593 19.0387 10.0689C21.658 12.1093 22.7521 14.9192 22.7189 18.4984Z" fill="black"/>
<path d="M82 11.8752C81.9337 16.2907 81.0054 19.7026 77.8888 22.1111C75.8 23.7167 73.446 24.3857 70.8599 24.2184C66.815 23.9508 63.6985 22.0776 61.7423 18.4984C59.6867 14.752 59.6867 10.8048 61.5434 7.0249C64.7594 0.435156 74.1091 -0.568358 79.1818 5.05132C81.0717 7.1587 81.9669 9.70093 82 11.8752Z" fill="black"/>
<path d="M38.136 0.000278932C43.5734 -0.0331715 47.7178 2.94392 48.7456 7.89459C49.7071 12.3769 48.6793 16.4579 45.2643 19.6357C39.5285 24.9543 29.6483 21.4755 27.9574 13.6815C27.5264 11.641 27.5596 9.56711 27.9906 7.52663C28.9852 3.07772 32.4997 0.167531 36.9756 0.000278932C37.3734 0.000278932 37.7713 0.000278932 38.136 0.000278932Z" fill="black"/>
</svg>
